<svg width="494" height="110" viewBox="0 0 494 110" fill="none" xmlns="http://www.w3.org/2000/svg">
<path d="M215.788 81.3423C209.64 81.3423 204.37 80.259 199.978 78.0924C195.645 75.9258 192.307 72.5588 189.965 67.9914C187.681 63.3654 186.539 57.4219 186.539 50.1609C186.539 39.5621 189.116 31.7155 194.269 26.6211C199.422 21.5267 206.595 18.9794 215.788 18.9794C220.766 18.9794 225.245 19.8285 229.227 21.5267C233.268 23.2248 236.459 25.8013 238.801 29.2561C241.202 32.6524 242.402 36.9856 242.402 42.2557L230.72 42.2557C230.72 39.3279 230.076 36.8685 228.788 34.8776C227.558 32.8281 225.831 31.2763 223.606 30.2223C221.381 29.1683 218.833 28.6413 215.964 28.6413C211.982 28.6413 208.674 29.4318 206.039 31.0128C203.404 32.5353 201.442 34.819 200.154 37.864C198.924 40.9089 198.309 44.6858 198.309 49.1947L198.309 51.1271C198.309 55.6945 198.924 59.5007 200.154 62.5456C201.442 65.5905 203.374 67.8743 205.951 69.3967C208.586 70.9192 211.924 71.6804 215.964 71.6804C219.009 71.6804 221.673 71.1827 223.957 70.1872C226.241 69.1332 227.997 67.6108 229.227 65.6198C230.515 63.5703 231.159 61.0817 231.159 58.1538L242.402 58.1538C242.402 63.4239 241.231 67.7864 238.889 71.2413C236.547 74.6376 233.355 77.1848 229.315 78.8829C225.333 80.5225 220.824 81.3423 215.788 81.3423Z" fill="white"/>
<path d="M272.152 81.3423C267.116 81.3423 262.9 80.4932 259.504 78.7951C256.108 77.0384 253.561 74.374 251.862 70.8021C250.164 67.2301 249.315 62.692 249.315 57.1877C249.315 51.6248 250.164 47.0866 251.862 43.5732C253.561 40.0013 256.108 37.3662 259.504 35.6681C262.9 33.9114 267.116 33.033 272.152 33.033C277.247 33.033 281.463 33.9114 284.801 35.6681C288.197 37.3662 290.744 40.0013 292.442 43.5732C294.14 47.0866 294.989 51.6248 294.989 57.1877C294.989 62.692 294.14 67.2301 292.442 70.8021C290.744 74.374 288.197 77.0384 284.801 78.7951C281.463 80.4932 277.247 81.3423 272.152 81.3423ZM272.152 72.5588C274.963 72.5588 277.218 72.0318 278.916 70.9778C280.672 69.8652 281.931 68.2256 282.693 66.059C283.512 63.8338 283.922 61.0817 283.922 57.8025V56.5728C283.922 53.2936 283.512 50.5708 282.693 48.4042C281.931 46.179 280.672 44.5394 278.916 43.4854C277.218 42.3728 274.963 41.8165 272.152 41.8165C269.342 41.8165 267.058 42.3728 265.301 43.4854C263.603 44.5394 262.344 46.179 261.524 48.4042C260.763 50.5708 260.382 53.2936 260.382 56.5728V57.8025C260.382 61.0817 260.763 63.8338 261.524 66.059C262.344 68.2256 263.603 69.8652 265.301 70.9778C267.058 72.0318 269.342 72.5588 272.152 72.5588Z" fill="white"/>
<path d="M306.29 80.2883L306.29 42.8706L299.615 42.8706L299.615 34.0871L306.29 34.0871V28.2021C306.29 26.1526 306.612 24.2203 307.256 22.405C307.959 20.5312 309.159 19.0087 310.857 17.8376C312.556 16.6665 314.927 16.0809 317.972 16.0809C318.85 16.0809 319.729 16.1394 320.607 16.2566C321.544 16.3737 322.422 16.5493 323.242 16.7836C324.062 16.9592 324.765 17.1642 325.35 17.3984L325.35 24.8644L320.958 24.8644C319.67 24.8644 318.675 25.2157 317.972 25.9184C317.328 26.5625 317.006 27.5287 317.006 28.817V34.0871L331.059 34.0871V28.2021C331.059 26.1526 331.411 24.2203 332.113 22.405C332.816 20.5312 334.017 19.0087 335.715 17.8376C337.413 16.6665 339.784 16.0809 342.829 16.0809C343.649 16.0809 344.498 16.1394 345.377 16.2566C346.313 16.3737 347.192 16.5493 348.012 16.7836C348.831 16.9592 349.534 17.1642 350.12 17.3984L350.12 24.8644L345.728 24.8644C344.44 24.8644 343.444 25.2157 342.742 25.9184C342.097 26.5625 341.775 27.5287 341.775 28.817V34.0871L350.12 34.0871L350.12 42.8706L341.775 42.8706L341.775 80.2883L331.059 80.2883L331.059 42.8706L317.006 42.8706L317.006 80.2883L306.29 80.2883Z" fill="white"/>
<path d="M375.239 81.3423C370.32 81.3423 366.221 80.4932 362.942 78.7951C359.663 77.0384 357.204 74.374 355.564 70.8021C353.924 67.2301 353.105 62.692 353.105 57.1877C353.105 51.6248 353.924 47.0866 355.564 43.5732C357.204 40.0013 359.663 37.3662 362.942 35.6681C366.221 33.9114 370.32 33.033 375.239 33.033C379.689 33.033 383.408 33.8821 386.394 35.5803C389.439 37.2198 391.723 39.7671 393.245 43.2219C394.768 46.6767 395.529 51.1563 395.529 56.6607L395.529 59.8227L364.084 59.8227C364.201 62.692 364.64 65.1221 365.402 67.113C366.163 69.0454 367.334 70.5093 368.915 71.5048C370.555 72.4417 372.692 72.9101 375.327 72.9101C376.674 72.9101 377.933 72.7345 379.104 72.3831C380.275 72.0318 381.3 71.5048 382.178 70.8021C383.056 70.0409 383.73 69.1039 384.198 67.9914C384.725 66.8788 384.989 65.5905 384.989 64.1266L395.529 64.1266C395.529 67.0545 395.002 69.6017 393.948 71.7683C392.952 73.9349 391.518 75.7208 389.644 77.1262C387.829 78.5316 385.691 79.5856 383.232 80.2883C380.773 80.991 378.108 81.3423 375.239 81.3423ZM364.26 52.2689L384.374 52.2689C384.374 50.3365 384.14 48.6969 383.671 47.3501C383.261 46.0033 382.646 44.8908 381.827 44.0124C381.065 43.1341 380.129 42.5192 379.016 42.1679C377.903 41.758 376.644 41.553 375.239 41.553C372.955 41.553 371.023 41.9337 369.442 42.6949C367.919 43.4561 366.748 44.6273 365.929 46.2083C365.109 47.7893 364.552 49.8095 364.26 52.2689Z" fill="white"/>
<path d="M424.475 81.3423C419.556 81.3423 415.457 80.4932 412.178 78.7951C408.899 77.0384 406.439 74.374 404.8 70.8021C403.16 67.2301 402.34 62.692 402.34 57.1877C402.34 51.6248 403.16 47.0866 404.8 43.5732C406.439 40.0013 408.899 37.3662 412.178 35.6681C415.457 33.9114 419.556 33.033 424.475 33.033C428.925 33.033 432.643 33.8821 435.63 35.5803C438.675 37.2198 440.958 39.7671 442.481 43.2219C444.003 46.6767 444.765 51.1563 444.765 56.6607V59.8227L413.32 59.8227C413.437 62.692 413.876 65.1221 414.637 67.113C415.398 69.0454 416.57 70.5093 418.151 71.5048C419.79 72.4417 421.927 72.9101 424.563 72.9101C425.909 72.9101 427.168 72.7345 428.339 72.3831C429.511 72.0318 430.535 71.5048 431.414 70.8021C432.292 70.0409 432.965 69.1039 433.434 67.9914C433.961 66.8788 434.224 65.5905 434.224 64.1266L444.765 64.1266C444.765 67.0545 444.238 69.6017 443.184 71.7683C442.188 73.9349 440.753 75.7208 438.88 77.1262C437.064 78.5316 434.927 79.5856 432.468 80.2883C430.008 80.991 427.344 81.3423 424.475 81.3423ZM413.495 52.2689L433.61 52.2689C433.61 50.3365 433.375 48.6969 432.907 47.3501C432.497 46.0033 431.882 44.8908 431.062 44.0124C430.301 43.1341 429.364 42.5192 428.252 42.1679C427.139 41.758 425.88 41.553 424.475 41.553C422.191 41.553 420.259 41.9337 418.678 42.6949C417.155 43.4561 415.984 44.6273 415.164 46.2083C414.344 47.7893 413.788 49.8095 413.495 52.2689Z" fill="white"/>
<path d="M473.71 81.3423C468.792 81.3423 464.693 80.4932 461.413 78.7951C458.134 77.0384 455.675 74.374 454.035 70.8021C452.396 67.2301 451.576 62.692 451.576 57.1877C451.576 51.6248 452.396 47.0866 454.035 43.5732C455.675 40.0013 458.134 37.3662 461.413 35.6681C464.693 33.9114 468.792 33.033 473.71 33.033C478.161 33.033 481.879 33.8821 484.865 35.5803C487.91 37.2198 490.194 39.7671 491.716 43.2219C493.239 46.6767 494 51.1563 494 56.6607V59.8227L462.555 59.8227C462.672 62.692 463.112 65.1221 463.873 67.113C464.634 69.0454 465.805 70.5093 467.386 71.5048C469.026 72.4417 471.163 72.9101 473.798 72.9101C475.145 72.9101 476.404 72.7345 477.575 72.3831C478.746 72.0318 479.771 71.5048 480.649 70.8021C481.528 70.0409 482.201 69.1039 482.669 67.9914C483.197 66.8788 483.46 65.5905 483.46 64.1266L494 64.1266C494 67.0545 493.473 69.6017 492.419 71.7683C491.424 73.9349 489.989 75.7208 488.115 77.1262C486.3 78.5316 484.163 79.5856 481.703 80.2883C479.244 80.991 476.58 81.3423 473.71 81.3423ZM462.731 52.2689L482.845 52.2689C482.845 50.3365 482.611 48.6969 482.142 47.3501C481.733 46.0033 481.118 44.8908 480.298 44.0124C479.537 43.1341 478.6 42.5192 477.487 42.1679C476.375 41.758 475.116 41.553 473.71 41.553C471.427 41.553 469.494 41.9337 467.913 42.6949C466.391 43.4561 465.22 44.6273 464.4 46.2083C463.58 47.7893 463.024 49.8095 462.731 52.2689Z" fill="white"/>
<path d="M33.1723 52.3306C46.4163 52.3306 57.1527 41.5942 57.1527 28.3502C57.1527 15.1062 46.4163 4.36981 33.1723 4.36981C19.9283 4.36981 9.19189 15.1062 9.19189 28.3502C9.19189 41.5942 19.9283 52.3306 33.1723 52.3306Z" fill="#FF2C91"/>
<path d="M95.1665 52.3306C108.411 52.3306 119.147 41.5942 119.147 28.3502C119.147 15.1062 108.411 4.36981 95.1665 4.36981C81.9225 4.36981 71.1862 15.1062 71.1862 28.3502C71.1862 41.5942 81.9225 52.3306 95.1665 52.3306Z" fill="#FF2C91"/>
<path d="M5.21079 37.1582L8.78928 33.4185C8.78928 33.4185 27.406 76.1768 56.0543 36.3094L68.8055 35.7994C68.8055 35.7994 79.6246 53.5633 91.8964 53.3103C104.168 53.0573 114.224 45.5821 118.109 34.2692L123.209 35.9687C123.209 35.9687 121.083 87.5692 94.9873 97.3437C68.8892 107.12 44.6619 115.875 16.2707 83.4031C16.2707 83.4031 -4.26589 56.744 5.21079 37.1582Z" fill="white"/>
<path d="M127.751 36.3765C127.073 36.3765 126.406 36.4092 125.749 36.4745C124.586 29.24 122.201 22.4135 118.81 16.2195C117.792 14.3568 116.678 12.5512 115.485 10.8069C115.475 10.7967 115.469 10.7865 115.464 10.7783C110.621 4.61488 103.266 0.520218 94.9402 0.0468943C94.9075 0.0428139 94.8729 0.0428162 94.8402 0.0428162C99.8795 3.47033 104.331 7.69148 108.018 12.5308C108.022 12.5349 108.022 12.5369 108.022 12.5369C108.195 12.6961 108.365 12.8593 108.526 13.0286C108.614 13.1123 108.701 13.2041 108.787 13.2959C108.83 13.3346 108.869 13.3734 108.901 13.4163C108.999 13.5142 109.091 13.6142 109.181 13.7162C109.426 13.9834 109.662 14.2568 109.887 14.5363C109.97 14.6363 110.052 14.7383 110.131 14.8383C110.525 15.33 110.892 15.84 111.237 16.3684C111.351 16.5337 111.458 16.703 111.566 16.8764C111.572 16.8887 111.582 16.905 111.592 16.9213C111.702 17.1008 111.811 17.2783 111.915 17.462C112.002 17.615 112.09 17.7721 112.176 17.9312C112.237 18.0393 112.292 18.1495 112.349 18.2597C112.414 18.376 112.474 18.4943 112.531 18.6147C112.596 18.7452 112.661 18.8778 112.722 19.0125C112.843 19.2655 112.957 19.5225 113.067 19.7837C113.067 19.7878 113.071 19.7878 113.067 19.7898C113.126 19.9163 113.177 20.0469 113.226 20.1774C113.259 20.2529 113.288 20.3305 113.318 20.408C113.363 20.5182 113.406 20.6324 113.445 20.7467C113.532 20.9772 113.614 21.2098 113.69 21.4424C113.739 21.5913 113.787 21.7423 113.832 21.8953L113.881 22.0605C113.881 22.0605 113.885 22.0646 113.885 22.0667C116.346 27.1345 118.064 32.6308 118.904 38.4127C118.959 38.7799 119.004 39.1512 119.051 39.5225C119.067 39.6592 119.084 39.7959 119.1 39.9326C119.129 40.1672 119.155 40.4039 119.178 40.6385C119.216 40.9996 119.253 41.3607 119.282 41.7259C119.302 41.9544 119.32 42.1809 119.337 42.4135C119.365 42.8011 119.39 43.1908 119.408 43.5825C119.42 43.7886 119.435 43.9885 119.441 44.1905C119.467 44.7821 119.484 45.3758 119.49 45.9715C119.494 46.1694 119.494 46.3714 119.494 46.5714C119.494 52.7205 118.508 58.6391 116.682 64.1762C115.889 66.5918 114.932 68.9318 113.832 71.1903C104.702 89.8989 85.4962 102.787 63.2805 102.787C32.2309 102.787 7.06517 77.619 7.06517 46.5714C7.06517 44.115 7.22227 41.6933 7.53034 39.3205C8.34641 32.9674 10.2254 26.9468 12.9817 21.4383C12.9858 21.4322 12.9858 21.4281 12.9878 21.426C12.998 21.3893 13.0103 21.3546 13.0205 21.322C13.0756 21.1567 13.1347 20.9935 13.1939 20.8303C13.2531 20.6671 13.3143 20.5039 13.3755 20.3447C13.4408 20.1815 13.502 20.0224 13.5713 19.8633C13.6264 19.7327 13.6815 19.6001 13.7407 19.4695C13.7958 19.343 13.8549 19.2124 13.9161 19.0819C13.9753 18.9554 14.0365 18.8248 14.0977 18.6983C14.1589 18.5718 14.2242 18.4453 14.2895 18.3168C14.4201 18.0638 14.5527 17.8149 14.6934 17.5721C14.7485 17.4722 14.8077 17.3661 14.8689 17.2661C15.0974 16.8785 15.3341 16.501 15.585 16.1338C15.6768 15.993 15.7707 15.8563 15.8686 15.7237C15.9665 15.5829 16.0665 15.4462 16.1705 15.3095C16.2746 15.1688 16.3786 15.0321 16.4868 14.8995C16.5908 14.7628 16.6989 14.6302 16.8091 14.4996C17.2559 13.9569 17.7272 13.4387 18.225 12.9429C18.225 12.9389 18.2291 12.9389 18.2311 12.9368C21.9749 7.92815 26.5347 3.5703 31.7086 0.0509755C31.5944 0.0550559 31.4801 0.0632179 31.3659 0.0713787C22.3278 0.695677 14.4649 5.59417 9.78475 12.7573C9.57257 13.0898 9.36447 13.4203 9.16045 13.759C9.08904 13.8733 9.02376 13.9875 8.95439 14.1018C3.26838 23.5948 0 34.7015 0 46.5714C0 81.5178 28.328 109.846 63.2785 109.846C87.9566 109.846 109.332 95.7195 119.763 75.1157C122.213 76.1766 124.915 76.7621 127.753 76.7621C138.902 76.7621 147.944 67.72 147.944 56.5703C147.944 45.4207 138.902 36.3786 127.753 36.3786L127.751 36.3765ZM127.751 70.0009C125.882 70.0009 124.103 69.6194 122.485 68.9298C125.111 61.9768 126.551 54.4424 126.551 46.5693C126.551 45.437 126.522 44.3129 126.463 43.1949C126.885 43.152 127.316 43.1337 127.753 43.1337C135.173 43.1337 141.187 49.1481 141.187 56.5683C141.187 63.9885 135.173 70.0009 127.753 70.0009H127.751Z" fill="#FF2C91"/>
<path d="M96.7216 49.293C95.6138 49.4705 94.4774 49.5623 93.3206 49.5623C87.4 49.5623 82.0424 47.1631 78.1661 43.2847C74.7467 39.8714 72.476 35.3055 71.9863 30.2173H72.0741C72.0251 29.5256 71.9904 28.834 71.9904 28.1302C71.9904 26.651 72.1047 25.1984 72.325 23.7805C73.186 19.6062 75.2629 15.8768 78.1661 12.9756C82.0424 9.09723 87.4 6.69797 93.3206 6.69797C93.545 6.69797 93.7694 6.70205 93.9898 6.70817C94.1326 6.71429 94.2795 6.71837 94.4223 6.72653C95.1935 6.76733 95.9565 6.84486 96.7053 6.96523C96.7093 6.96523 96.7155 6.96727 96.7195 6.96727C92.1618 7.69358 88.0834 9.85618 84.966 12.9756C81.0876 16.852 78.6843 22.2095 78.6843 28.1302C78.6843 34.0508 81.0876 39.4104 84.966 43.2847C88.0855 46.4041 92.1618 48.5688 96.7216 49.293Z" fill="#FF72B6"/>
<path d="M36.7421 49.293C35.6342 49.4705 34.4979 49.5623 33.3411 49.5623C22.983 49.5623 14.3428 42.2156 12.3434 32.4492C12.1251 31.0395 12.0129 29.5991 12.0129 28.1302C12.0129 26.6612 12.1211 25.2821 12.3292 23.9029C12.3292 23.8968 12.3292 23.8927 12.3312 23.8866C12.4026 23.5295 12.4842 23.1766 12.574 22.8257C12.6168 22.6563 12.6617 22.487 12.7107 22.3177C12.7556 22.1524 12.8086 21.9831 12.8576 21.8158C12.8963 21.6893 12.9392 21.5628 12.978 21.4383C12.98 21.4322 12.98 21.4281 12.9841 21.4261C12.9943 21.3894 13.0065 21.3547 13.0167 21.322C13.0718 21.1547 13.131 20.9936 13.1881 20.8304C13.2473 20.6671 13.3085 20.5039 13.3717 20.3448C13.437 20.1816 13.4982 20.0224 13.5655 19.8633C13.6227 19.7327 13.6777 19.6001 13.7349 19.4696C13.792 19.3431 13.8491 19.2125 13.9124 19.0819C13.9695 18.9554 14.0327 18.8249 14.0939 18.6984C14.1551 18.5719 14.2204 18.4433 14.2857 18.3168C14.4163 18.0639 14.5489 17.817 14.6897 17.5722C14.7448 17.4702 14.8039 17.3661 14.8651 17.2661C15.0936 16.8785 15.3303 16.5011 15.5812 16.1338C15.673 15.9931 15.7669 15.8564 15.8648 15.7238C15.9627 15.583 16.0627 15.4463 16.1668 15.3096C16.2708 15.1709 16.3749 15.0342 16.483 14.8995C16.587 14.7628 16.6952 14.6302 16.8053 14.4997C17.2501 13.957 17.7234 13.4388 18.2212 12.943C18.2212 12.943 18.2233 12.943 18.2274 12.9369C18.462 12.7022 18.7027 12.4758 18.9496 12.2534C19.0516 12.1596 19.1556 12.0677 19.2597 11.978C19.3535 11.8923 19.4515 11.8086 19.5514 11.727C19.6698 11.625 19.7901 11.5271 19.9105 11.4332C20.5083 10.9456 21.1367 10.4927 21.7916 10.0724C21.9507 9.97247 22.1098 9.87454 22.269 9.77661C22.4322 9.67868 22.5954 9.58484 22.7586 9.49099C22.9239 9.39714 23.0891 9.30533 23.2564 9.2176C23.4156 9.12987 23.5788 9.04826 23.7379 8.96666C23.7563 8.95646 23.7767 8.94421 23.7991 8.93401C23.9521 8.85853 24.1011 8.78712 24.2541 8.71571C24.2704 8.70551 24.2867 8.69939 24.3071 8.69327C24.4377 8.63207 24.5683 8.56882 24.7009 8.51373C24.9151 8.41581 25.1334 8.32604 25.3517 8.24035C25.468 8.19139 25.5863 8.14242 25.7067 8.10162C25.9352 8.01389 26.1657 7.9282 26.3963 7.85067C26.5309 7.80171 26.6676 7.75887 26.8002 7.71602C27.0308 7.64258 27.2654 7.57117 27.5 7.50588C27.6857 7.45284 27.8713 7.40183 28.059 7.35491C28.2161 7.3141 28.3712 7.27738 28.5283 7.24066C28.6609 7.21006 28.7955 7.17945 28.9322 7.15293C28.9751 7.14477 29.0159 7.13457 29.0587 7.12845C29.173 7.10193 29.2831 7.08152 29.3974 7.06316C29.6545 7.0142 29.9115 6.96727 30.1686 6.93259C30.2869 6.91219 30.4073 6.89587 30.5277 6.88363C30.6868 6.86118 30.8459 6.84078 31.0091 6.82446C31.152 6.80814 31.2948 6.7959 31.4376 6.78366C31.4865 6.77549 31.5335 6.77345 31.5804 6.76937C31.6783 6.75917 31.7762 6.75305 31.8783 6.75101C31.9986 6.74081 32.119 6.73061 32.2394 6.72653C32.4046 6.71837 32.5699 6.71021 32.7372 6.70817C32.9392 6.70205 33.1411 6.69797 33.3411 6.69797C34.4979 6.69797 35.6322 6.78977 36.738 6.96727C36.5585 6.99583 36.3769 7.02848 36.1973 7.06316C36.0831 7.08152 35.9729 7.10193 35.8587 7.12845C35.8179 7.13457 35.775 7.14477 35.7322 7.15293C35.5955 7.17945 35.4629 7.21006 35.3282 7.24066C35.1732 7.27738 35.0161 7.3141 34.861 7.35491C34.6713 7.40183 34.4856 7.45284 34.3 7.50588C34.0653 7.57117 33.8328 7.64258 33.6002 7.71602C33.4676 7.75887 33.3309 7.80171 33.1962 7.85067C32.9657 7.9282 32.7351 8.01389 32.5066 8.10162C32.3863 8.14242 32.27 8.19139 32.1516 8.24035C31.9333 8.32604 31.7171 8.41581 31.5008 8.51373C31.3682 8.56882 31.2376 8.63207 31.1071 8.69327C31.0887 8.69939 31.0724 8.70551 31.0561 8.71571C30.903 8.78712 30.7521 8.85853 30.5991 8.93401C30.5766 8.94421 30.5583 8.95646 30.5379 8.96666C30.3787 9.04826 30.2155 9.12987 30.0564 9.2176C29.8911 9.30533 29.7238 9.39714 29.5586 9.49099C29.3953 9.58484 29.2321 9.67868 29.071 9.77661C28.9098 9.87454 28.7507 9.97247 28.5915 10.0724C27.9366 10.4927 27.3103 10.9456 26.7105 11.4332C26.5901 11.5271 26.4697 11.625 26.3534 11.727C26.2514 11.8086 26.1535 11.8923 26.0596 11.978C25.9556 12.0677 25.8515 12.1596 25.7495 12.2534C25.5027 12.4758 25.2619 12.7022 25.0273 12.9369C25.0273 12.9409 25.0212 12.9409 25.0212 12.943C24.5234 13.4388 24.0521 13.957 23.6053 14.4997C23.4951 14.6302 23.387 14.7628 23.2829 14.8995C23.1769 15.0342 23.0728 15.1709 22.9667 15.3096C22.8627 15.4463 22.7627 15.583 22.6648 15.7238C22.5668 15.8564 22.473 15.9931 22.3812 16.1338C22.1302 16.5011 21.8936 16.8785 21.6651 17.2661C21.6039 17.3661 21.5447 17.4702 21.4896 17.5722C21.3509 17.817 21.2162 18.0639 21.0857 18.3168C21.0204 18.4433 20.9571 18.5719 20.8939 18.6984C20.8327 18.8249 20.7715 18.9554 20.7123 19.0819C20.6511 19.2125 20.5919 19.3431 20.5368 19.4696C20.4777 19.6001 20.4226 19.7327 20.3675 19.8633C20.2982 20.0224 20.2369 20.1816 20.1717 20.3448C20.1105 20.5039 20.0472 20.6671 19.9901 20.8304C19.9309 20.9936 19.8717 21.1547 19.8167 21.322C19.8065 21.3547 19.7942 21.3894 19.784 21.4261C19.782 21.4281 19.782 21.4322 19.7779 21.4383C19.7391 21.5628 19.6963 21.6893 19.6575 21.8158C19.6086 21.9831 19.5576 22.1524 19.5106 22.3177C19.4617 22.487 19.4168 22.6563 19.3739 22.8257C19.0598 24.0559 18.8496 25.331 18.7619 26.6388C18.7394 26.9366 18.7272 27.2345 18.7211 27.5344C18.7129 27.7323 18.7109 27.9323 18.7109 28.1302C18.7109 38.8105 26.5207 47.665 36.7421 49.293Z" fill="#FF72B6"/>
<path d="M118.811 16.2195C117.907 14.2854 116.787 12.4696 115.485 10.8069C115.475 10.7967 115.469 10.7865 115.465 10.7783C110.621 4.61491 103.266 0.520247 94.9404 0.0469235C94.9077 0.0428431 94.873 0.0428453 94.8404 0.0428453C94.3385 0.0142827 93.8305 0 93.3205 0C77.7865 0 65.1903 12.592 65.1903 28.1281C65.1903 28.832 65.2271 29.5236 65.274 30.2152H61.3915C61.4405 29.5256 61.4752 28.832 61.4752 28.1281C61.4752 12.5941 48.879 0 33.3409 0C32.7901 0 32.2474 0.0163226 31.7047 0.0489657C31.5905 0.053046 31.4762 0.0612049 31.362 0.0693657C22.3239 0.693664 14.461 5.59216 9.78084 12.7553C9.56866 13.0878 9.36056 13.4183 9.15654 13.757C9.08513 13.8712 9.01985 13.9855 8.95049 14.0997C6.57162 18.2291 5.21082 23.0174 5.21082 28.1281C5.21082 31.9596 5.97793 35.6115 7.36118 38.937C7.41422 39.0635 7.4693 39.19 7.52439 39.3185C11.8496 49.291 21.7792 56.2582 33.3409 56.2582C45.7086 56.2582 56.2053 48.277 59.9736 37.1824H66.6817C70.4581 48.277 80.9508 56.2582 93.3184 56.2582C104.801 56.2582 114.673 49.3807 119.047 39.5225C119.047 39.5185 119.051 39.5185 119.051 39.5164V39.5123C120.594 36.0338 121.451 32.1819 121.451 28.1281C121.451 23.8702 120.504 19.8347 118.811 16.2195ZM33.343 49.5603C21.5058 49.5603 11.9108 39.9653 11.9108 28.1281C11.9108 27.9302 11.9149 27.7303 11.921 27.5324C11.9271 27.2324 11.9414 26.9325 11.9638 26.6367C12.0516 25.3289 12.2597 24.0518 12.5759 22.8216C12.6187 22.6522 12.6636 22.4829 12.7126 22.3135C12.7575 22.1483 12.8105 21.979 12.8595 21.8117C12.8982 21.6852 12.9411 21.5587 12.9799 21.4342C12.9839 21.4281 12.9839 21.424 12.986 21.422C12.9962 21.3853 13.0084 21.3506 13.0186 21.3179C13.0737 21.1527 13.1329 20.9895 13.192 20.8263C13.2512 20.663 13.3124 20.4998 13.3736 20.3407C13.4389 20.1775 13.5001 20.0183 13.5695 19.8592C13.6246 19.7286 13.6796 19.596 13.7388 19.4654C13.7939 19.339 13.8531 19.2084 13.9143 19.0778C13.9734 18.9513 14.0346 18.8207 14.0958 18.6943C14.157 18.5678 14.2223 18.4413 14.2876 18.3127C14.4182 18.0598 14.5508 17.8109 14.6916 17.5681C14.7467 17.4681 14.8058 17.362 14.867 17.262C15.0955 16.8744 15.3322 16.497 15.5831 16.1297C15.6749 15.989 15.7688 15.8523 15.8667 15.7197C15.9647 15.5789 16.0646 15.4422 16.1687 15.3055C16.2727 15.1647 16.3768 15.028 16.4849 14.8954C16.589 14.7587 16.6971 14.6261 16.8072 14.4955C17.2541 13.9529 17.7253 13.4346 18.2231 12.9389C18.2231 12.9348 18.2272 12.9348 18.2293 12.9328C18.4639 12.6981 18.7046 12.4696 18.9515 12.2493C19.0515 12.1554 19.1575 12.0636 19.2616 11.9718C19.3554 11.8882 19.4534 11.8025 19.5554 11.7209C19.6717 11.6209 19.792 11.523 19.9124 11.4271C20.5122 10.9395 21.1386 10.4866 21.7935 10.0663C21.9526 9.96632 22.1117 9.86839 22.2729 9.77046C22.4361 9.67254 22.5993 9.57869 22.7605 9.48484C22.9258 9.39099 23.0931 9.29918 23.2583 9.21145C23.4175 9.12372 23.5807 9.04212 23.7398 8.96051C23.7602 8.95031 23.7786 8.93807 23.801 8.92787C23.954 8.85238 24.103 8.78097 24.256 8.70957C24.2723 8.69937 24.2886 8.69325 24.309 8.68713C24.4396 8.62592 24.5702 8.56267 24.7028 8.50759C24.917 8.40966 25.1353 8.31785 25.3536 8.2342C25.4699 8.18524 25.5882 8.13627 25.7086 8.09343C25.9371 8.0057 26.1676 7.92001 26.3982 7.84249C26.5308 7.79352 26.6675 7.75068 26.8021 7.70987C27.0327 7.63439 27.2673 7.56298 27.5019 7.49769C27.6876 7.44465 27.8732 7.39365 28.0609 7.34876C28.218 7.30592 28.3731 7.27123 28.5302 7.23451C28.6628 7.20187 28.7974 7.1733 28.9341 7.14678C28.977 7.13658 29.0178 7.12638 29.0606 7.12026C29.1749 7.09374 29.285 7.07538 29.3993 7.05497C29.6564 7.00601 29.9134 6.96113 30.1705 6.9244C30.2868 6.904 30.4072 6.88768 30.5275 6.87544C30.6867 6.85299 30.8458 6.83259 31.009 6.81627C31.1518 6.79995 31.2946 6.78771 31.4395 6.77343C31.4884 6.76731 31.5333 6.76323 31.5823 6.76119C31.6802 6.75099 31.7782 6.74486 31.8781 6.74078C31.9985 6.73058 32.1189 6.72038 32.2392 6.71834C32.4045 6.70814 32.5718 6.70202 32.737 6.69794C32.939 6.69182 33.141 6.68774 33.343 6.68774C45.1802 6.68774 54.7752 16.2868 54.7752 28.1199C54.7752 39.953 45.1802 49.5521 33.343 49.5521V49.5603ZM93.3205 49.5603C87.3998 49.5603 82.0423 47.161 78.1659 43.2826C74.2855 39.4103 71.8842 34.0487 71.8842 28.1281C71.8842 22.2075 74.2855 16.8499 78.1659 12.9736C82.0423 9.09312 87.3998 6.6959 93.3205 6.6959C93.5449 6.6959 93.7693 6.69998 93.9917 6.7061C94.1345 6.71222 94.2814 6.7163 94.4242 6.7265C95.1954 6.76527 95.9564 6.84279 96.7051 6.96317C96.8418 6.98357 96.9785 7.00601 97.1152 7.03253C97.2907 7.06518 97.4661 7.09782 97.6395 7.1325C97.815 7.16923 97.9884 7.20391 98.1598 7.24675C98.3781 7.29572 98.5923 7.34672 98.8065 7.40589C98.933 7.43853 99.0595 7.47525 99.188 7.50994C99.4063 7.57114 99.6246 7.63643 99.8429 7.70783C99.9511 7.74048 100.055 7.7772 100.159 7.8078C100.186 7.81801 100.212 7.82821 100.237 7.83637C100.39 7.88533 100.539 7.94042 100.69 7.9955C100.847 8.05059 101 8.10975 101.153 8.17096C101.179 8.18116 101.206 8.19136 101.234 8.2036C101.365 8.25665 101.498 8.30765 101.628 8.36681C101.891 8.47494 102.154 8.59124 102.412 8.71569C102.552 8.78097 102.691 8.84626 102.832 8.91767C102.981 8.99315 103.132 9.0666 103.281 9.14617C103.428 9.22369 103.576 9.3053 103.723 9.38691C104.017 9.55012 104.307 9.71946 104.588 9.89492C104.731 9.98673 104.872 10.0745 105.011 10.1642C105.152 10.256 105.29 10.3499 105.427 10.4437C105.704 10.6335 105.974 10.8273 106.241 11.0293C106.414 11.1558 106.58 11.2863 106.745 11.423C106.839 11.4985 106.935 11.576 107.024 11.6515C107.367 11.9351 107.698 12.2269 108.018 12.5308C108.022 12.5349 108.022 12.537 108.022 12.537C108.195 12.6961 108.365 12.8593 108.526 13.0286C108.614 13.1123 108.701 13.2041 108.787 13.2959C108.83 13.3347 108.869 13.3734 108.901 13.4163C108.999 13.5142 109.091 13.6142 109.181 13.7162C109.426 13.9835 109.662 14.2568 109.887 14.5363C109.97 14.6363 110.052 14.7383 110.132 14.8383C110.525 15.33 110.893 15.84 111.237 16.3684C111.352 16.5337 111.458 16.703 111.566 16.8764C111.572 16.8887 111.582 16.905 111.592 16.9213C111.703 17.1009 111.811 17.2784 111.915 17.462C112.002 17.615 112.09 17.7721 112.176 17.9312C112.237 18.0394 112.292 18.1495 112.349 18.2597C112.415 18.376 112.474 18.4943 112.531 18.6147C112.596 18.7453 112.661 18.8779 112.723 19.0125C112.843 19.2655 112.957 19.5226 113.067 19.7837C113.067 19.7878 113.072 19.7878 113.067 19.7898C113.127 19.9163 113.178 20.0469 113.227 20.1775C113.259 20.253 113.288 20.3305 113.318 20.408C113.363 20.5182 113.406 20.6324 113.445 20.7467C113.533 20.9772 113.614 21.2098 113.69 21.4424C113.739 21.5913 113.788 21.7423 113.833 21.8953L113.881 22.0606C113.881 22.0606 113.886 22.0646 113.886 22.0667C113.906 22.132 113.922 22.1973 113.941 22.2625C114.088 22.7726 114.214 23.2969 114.322 23.8253C114.355 23.9906 114.387 24.1599 114.42 24.3293C114.459 24.5414 114.492 24.7557 114.524 24.9699C114.545 25.1127 114.563 25.2535 114.583 25.3963C114.606 25.5615 114.622 25.7247 114.638 25.89C114.665 26.1144 114.683 26.3429 114.7 26.5694C114.71 26.7183 114.72 26.8693 114.726 27.0223C114.736 27.1957 114.742 27.3712 114.749 27.5426C114.753 27.7384 114.755 27.9302 114.755 28.126C114.755 39.9632 105.16 49.5582 93.3225 49.5582L93.3205 49.5603Z" fill="#FF2C91"/>
<path d="M33.5026 33.3567C36.3612 33.3567 38.6786 31.0394 38.6786 28.1808C38.6786 25.3222 36.3612 23.0048 33.5026 23.0048C30.644 23.0048 28.3267 25.3222 28.3267 28.1808C28.3267 31.0394 30.644 33.3567 33.5026 33.3567Z" fill="white"/>
<path d="M93.3693 33.3567C96.2279 33.3567 98.5453 31.0394 98.5453 28.1808C98.5453 25.3222 96.2279 23.0048 93.3693 23.0048C90.5107 23.0048 88.1934 25.3222 88.1934 28.1808C88.1934 31.0394 90.5107 33.3567 93.3693 33.3567Z" fill="white"/>
<path d="M91.874 72.7569L84.9312 75.5948C84.0172 80.5749 79.6512 84.3472 74.412 84.3472C72.127 84.3472 70.0113 83.6311 68.2731 82.4131L61.3303 85.251C64.5334 88.8601 69.2075 91.1349 74.41 91.1349C84.0662 91.1349 91.8944 83.3067 91.8944 73.6505C91.8944 73.3506 91.8883 73.0507 91.872 72.7549L91.874 72.7569Z" fill="#FF2C91"/>
<path d="M66.6836 102.685C65.5554 102.752 64.419 102.787 63.2744 102.787C32.2248 102.787 7.05908 77.6191 7.05908 46.5715C7.05908 44.1151 7.21618 41.6934 7.52629 39.3207C9.02787 42.7829 11.2068 45.884 13.8937 48.4546C14.8485 77.5008 37.8353 100.969 66.6836 102.685Z" fill="#E2E2E2"/>
</svg>
